<?xml version="1.0" encoding="UTF-8" standalone="no"?>
<!DOCTYPE svg PUBLIC "-//W3C//DTD SVG 1.1//EN" "http://www.w3.org/Graphics/SVG/1.1/DTD/svg11.dtd">
<svg width="100%" height="100%" viewBox="0 0 7112 3112" version="1.1" xmlns="http://www.w3.org/2000/svg" xmlns:xlink="http://www.w3.org/1999/xlink" xml:space="preserve" xmlns:serif="http://www.serif.com/" style="fill-rule:evenodd;clip-rule:evenodd;stroke-linejoin:round;stroke-miterlimit:2;">
    <g transform="matrix(5.55556,0,0,5.55556,0,0)">
        <g transform="matrix(3.07818,0,0,1.83178,-593.82,-1688.92)">
            <path d="M589.721,1195.84C589.721,1183.79 583.898,1174 576.727,1174L224.943,1174C217.771,1174 211.949,1183.79 211.949,1195.84C211.949,1207.89 217.771,1217.67 224.943,1217.67L576.727,1217.67C583.898,1217.67 589.721,1207.89 589.721,1195.84Z"/>
        </g>
        <g id="Balance" transform="matrix(1,0,0,1,-7,-17)">
            <g id="Lever">
                <g transform="matrix(0.745074,0.0599473,-0.0747597,0.929176,75.1024,-164.768)">
                    <rect x="273.184" y="518.89" width="1110.39" height="42.91"/>
                </g>
                <g transform="matrix(1.00373,0.0807579,-0.0807579,1.00373,118.909,-238.551)">
                    <circle cx="160.335" cy="576.737" r="37.24"/>
                </g>
                <g transform="matrix(1.00373,0.0807579,-0.0807579,1.00373,946.235,-171.986)">
                    <circle cx="160.335" cy="576.737" r="37.24"/>
                </g>
            </g>
            <g id="Left-Plate" serif:id="Left Plate" transform="matrix(1,0,0,1,-70.9107,-681.899)">
                <g transform="matrix(0.791573,0,0,1,55.0111,79.3267)">
                    <path d="M579.913,845.968C579.925,846.196 579.931,846.423 579.931,846.65C579.931,878.599 461.189,904.539 314.931,904.539C168.674,904.539 49.931,878.599 49.931,846.65C49.931,846.423 49.937,846.196 49.949,845.968L579.913,845.968Z"/>
                </g>
                <g transform="matrix(0.917327,0,0,0.89218,-237.79,315.469)">
                    <rect x="580.046" y="683.53" width="21.802" height="112.085"/>
                </g>
            </g>
            <g id="Right-Plate" serif:id="Right Plate" transform="matrix(1,0,0,1,756.351,-614.075)">
                <g transform="matrix(0.791573,0,0,1,55.0111,79.3267)">
                    <path d="M579.913,845.968C579.925,846.196 579.931,846.423 579.931,846.65C579.931,878.599 461.189,904.539 314.931,904.539C168.674,904.539 49.931,878.599 49.931,846.65C49.931,846.423 49.937,846.196 49.949,845.968L579.913,845.968Z"/>
                </g>
                <g transform="matrix(0.917327,0,0,0.89218,-237.79,315.469)">
                    <rect x="580.046" y="683.53" width="21.802" height="112.085"/>
                </g>
            </g>
        </g>
        <g transform="matrix(1,0,0,1,-7,-17)">
            <path d="M647.022,48.347C744.568,48.347 823.763,127.542 823.763,225.088C823.763,322.634 744.568,401.829 647.022,401.829C549.476,401.829 470.282,322.634 470.282,225.088C470.282,127.542 549.476,48.347 647.022,48.347ZM564.522,158.661L564.522,167.361C571.722,158.761 578.522,152.811 584.922,149.511C591.322,146.211 599.322,144.561 608.922,144.561C628.522,144.561 642.922,152.161 652.122,167.361C658.922,158.961 665.822,153.061 672.822,149.661C679.822,146.261 688.822,144.561 699.822,144.561C711.222,144.561 721.422,146.961 730.422,151.761C740.422,157.161 747.322,164.761 751.122,174.561C753.722,181.161 755.022,191.561 755.022,205.761L755.022,234.861L754.722,257.361C754.722,265.561 754.822,270.561 755.022,272.361C756.022,279.561 758.622,283.161 762.822,283.161C764.222,283.161 766.322,282.861 769.122,282.261C771.922,281.661 774.022,281.361 775.422,281.361C782.422,281.361 785.922,284.361 785.922,290.361C785.922,297.361 781.922,300.861 773.922,300.861C770.922,300.861 766.372,300.511 760.272,299.811C754.172,299.111 749.522,298.761 746.322,298.761C742.922,298.761 737.972,299.111 731.472,299.811C724.972,300.511 720.022,300.861 716.622,300.861C708.222,300.861 704.022,297.361 704.022,290.361C704.022,284.361 707.222,281.361 713.622,281.361C714.422,281.361 716.422,281.561 719.622,281.961C720.822,282.361 722.422,282.561 724.422,282.561C727.822,282.561 729.972,280.861 730.872,277.461C731.772,274.061 732.322,265.561 732.522,251.961L732.822,233.661L732.822,213.861C732.822,200.061 731.772,190.011 729.672,183.711C727.572,177.411 723.622,172.461 717.822,168.861C712.022,165.261 705.422,163.461 698.022,163.461C683.822,163.461 673.922,168.361 668.322,178.161C663.922,185.961 661.722,199.561 661.722,218.961L661.722,240.261C661.722,259.061 662.172,270.811 663.072,275.511C663.972,280.211 666.322,282.561 670.122,282.561C671.322,282.561 673.072,282.311 675.372,281.811C677.672,281.311 679.422,281.061 680.622,281.061C683.422,281.061 685.772,282.011 687.672,283.911C689.572,285.811 690.522,288.161 690.522,290.961C690.522,297.561 685.822,300.861 676.422,300.861C673.422,300.861 668.972,300.461 663.072,299.661C657.172,298.861 652.722,298.461 649.722,298.461C645.522,298.461 640.922,298.861 635.922,299.661C630.922,300.461 626.522,300.861 622.722,300.861C614.522,300.861 610.422,297.461 610.422,290.661C610.422,284.461 613.422,281.361 619.422,281.361C621.622,281.361 623.322,281.561 624.522,281.961C627.322,282.561 629.422,282.861 630.822,282.861C635.622,282.861 638.122,277.761 638.322,267.561L638.622,253.461C638.822,249.061 638.922,244.761 638.922,240.561C639.122,236.961 639.222,235.061 639.222,234.861L639.222,209.961C639.222,192.561 636.872,180.461 632.172,173.661C627.472,166.861 619.122,163.461 607.122,163.461C593.922,163.461 583.822,168.261 576.822,177.861C571.022,185.661 568.122,199.261 568.122,218.661L568.122,258.561C568.122,266.561 568.222,271.261 568.422,272.661C569.222,279.461 571.422,282.861 575.022,282.861C576.022,282.861 578.122,282.461 581.322,281.661C581.722,281.661 582.322,281.561 583.122,281.361L585.222,281.361C593.022,281.361 596.922,284.661 596.922,291.261C596.922,297.661 592.422,300.861 583.422,300.861C580.022,300.861 575.822,300.561 570.822,299.961C564.022,299.161 558.222,298.761 553.422,298.761C551.022,298.761 546.622,299.061 540.222,299.661C531.622,300.461 526.422,300.861 524.622,300.861C516.622,300.861 512.622,297.461 512.622,290.661C512.622,284.461 516.422,281.361 524.022,281.361L525.822,281.361C526.622,281.561 527.222,281.661 527.622,281.661L535.122,283.161C535.322,283.361 535.722,283.461 536.322,283.461C541.722,283.461 544.622,278.561 545.022,268.761L545.622,251.661L545.622,205.761C545.622,188.761 545.172,178.161 544.272,173.961C543.372,169.761 540.922,167.661 536.922,167.661C536.122,167.661 533.322,168.161 528.522,169.161C526.522,169.561 524.922,169.761 523.722,169.761C516.322,169.761 512.622,166.561 512.622,160.161C512.622,153.361 516.722,149.961 524.922,149.961C527.122,149.961 530.122,150.161 533.922,150.561C537.722,150.961 541.022,151.161 543.822,151.161C544.822,151.161 545.922,151.061 547.122,150.861L549.222,150.861L556.422,149.961L557.322,149.961C562.122,149.961 564.522,152.861 564.522,158.661Z"/>
        </g>
        <g transform="matrix(0.665031,0,0,0.721086,109.898,23.9954)">
            <rect x="696.401" y="474.698" width="201.483" height="185.149"/>
        </g>
        <g transform="matrix(1,0,0,1,-97.3314,-229.687)">
            <text x="121.661px" y="440.432px" style="font-family:'AmericanTypewriter', 'American Typewriter', serif;font-size:375px;">c<tspan x="309.161px " y="440.432px ">o</tspan></text>
        </g>
        <g transform="matrix(1,0,0,1,-150.837,-713.941)">
            <g transform="matrix(1,0,0,0.78,883.702,602.399)">
                <text x="123.444px" y="440.432px" style="font-family:'AmericanTypewriter', 'American Typewriter', serif;font-size:375px;stroke:black;stroke-width:2.23px;">p</text>
            </g>
            <g transform="matrix(1,0,0,1,1098.99,550.55)">
                <text x="123.444px" y="440.432px" style="font-family:'AmericanTypewriter', 'American Typewriter', serif;font-size:375px;">s</text>
            </g>
        </g>
    </g>
</svg>
